# xmcd
#
# Track frame offsets:
#	150
#	17033
#	42740
#	55199
#	68900
#	84414
#	101956
#	126248
#	149440
#	164222
#	188813
#	213567
#
# Disc length: 3187 seconds
#
# Revision: 0
# Processed by: cddbd v1.5.2PL0 Copyright (c) Steve Scherf et al.
# Submitted via: audiograbber 1.83.01
#
DISCID=bc0c710c
DTITLE=Irvin Blais - Ca Pas D'Bon Sens 
DYEAR=2011
DGENRE=Country
TTITLE0=Est-Ce Trop Tard ?
TTITLE1=La 175 Nord
TTITLE2=Peut-Etre
TTITLE3=L'Temps D'La Chasse 
TTITLE4=Je M'ennui De Toi
TTITLE5=Mon Bel Amour
TTITLE6=Ca Pas D'Bon Sens 
TTITLE7=Mon Garçon
TTITLE8=Merci Madame Julie
TTITLE9=Pardonne-Moi
TTITLE10=Sans Savoir
TTITLE11=L'Alcoolisme
EXTD=
EXTT0=
EXTT1=
EXTT2=
EXTT3=
EXTT4=
EXTT5=
EXTT6=
EXTT7=
EXTT8=
EXTT9=
EXTT10=
EXTT11=
PLAYORDER=
